# xmcd CD database file
#
# Track frame offsets:
#	150
#	15685
#	34152
#
# Disc length: 658 seconds
#
# Revision: 0
# Processed by: cddbd v1.5PL3 Copyright (c) Steve Scherf et al.
# Submitted via: CDex 1.50Beta7
#
DISCID=1b029003
DTITLE=モーニング娘。 - モーニング娘。のひょっこりひょうたん島
DYEAR=2003
DGENRE=JPop
TTITLE0=モーニング娘。のひょっこりひょうたん島
TTITLE1=宝石箱
TTITLE2=モーニング娘。のひょっこりひょうたん島(Instrumental)
EXTD=YEAR: 2003
EXTT0=
EXTT1=
EXTT2=
PLAYORDER=
